<svg width="127" height="116" viewBox="0 0 127 116" fill="none" xmlns="http://www.w3.org/2000/svg">
<path d="M85.236 96.7572H73.9257C73.9593 97.7656 74.2196 98.6665 74.7066 99.46C75.1936 100.237 75.8485 100.84 76.6714 101.27C77.5111 101.7 78.4515 101.915 79.4927 101.915C80.3491 101.915 81.1384 101.766 81.8605 101.469C82.5994 101.154 83.2124 100.7 83.6994 100.105L84.4299 100.923C83.8589 101.601 83.1368 102.121 82.2635 102.485C81.4071 102.849 80.4751 103.031 79.4675 103.031C78.1576 103.031 76.9905 102.75 75.9661 102.188C74.9417 101.626 74.1356 100.849 73.5479 99.8568C72.9769 98.8649 72.6914 97.7326 72.6914 96.4597C72.6914 95.2033 72.9601 94.0792 73.4975 93.0874C74.0517 92.079 74.8074 91.2938 75.7646 90.7317C76.7218 90.1697 77.7966 89.8887 78.9889 89.8887C80.1812 89.8887 81.2476 90.1697 82.188 90.7317C83.1452 91.2773 83.8925 92.0459 84.4299 93.0378C84.984 94.0296 85.2611 95.1537 85.2611 96.4101L85.236 96.7572ZM78.9889 90.9797C78.0652 90.9797 77.234 91.1863 76.4951 91.5996C75.7562 91.9964 75.16 92.5667 74.7066 93.3106C74.27 94.0379 74.0181 94.8645 73.9509 95.7902H84.0268C83.9765 94.8645 83.7246 94.0379 83.2711 93.3106C82.8177 92.5832 82.2216 92.0129 81.4827 91.5996C80.7438 91.1863 79.9125 90.9797 78.9889 90.9797Z" fill="white"/>
<path d="M68.3145 84.5322H69.5739V102.931H68.3145V84.5322Z" fill="white"/>
<path d="M58.8166 89.8887C60.4455 89.8887 61.6966 90.3019 62.5698 91.1285C63.4431 91.9385 63.8797 93.137 63.8797 94.7239V102.932H62.6706V100.625C62.2508 101.386 61.6378 101.981 60.8317 102.411C60.0257 102.824 59.0601 103.031 57.9349 103.031C56.4739 103.031 55.3152 102.692 54.4587 102.014C53.6191 101.336 53.1992 100.444 53.1992 99.336C53.1992 98.2615 53.5855 97.3937 54.358 96.7324C55.1472 96.0547 56.3983 95.7158 58.1112 95.7158H62.6202V94.6743C62.6202 93.4676 62.2844 92.5501 61.6126 91.922C60.9577 91.2938 59.9921 90.9797 58.7158 90.9797C57.8425 90.9797 57.0029 91.1285 56.1968 91.426C55.4075 91.7236 54.7358 92.1203 54.1816 92.6163L53.5519 91.7236C54.2068 91.145 54.9961 90.6987 55.9197 90.3846C56.8434 90.054 57.809 89.8887 58.8166 89.8887ZM58.1112 102.014C59.2028 102.014 60.1264 101.766 60.8821 101.27C61.6546 100.774 62.234 100.055 62.6202 99.1129V96.6828H58.1364C56.8434 96.6828 55.9029 96.9143 55.3152 97.3771C54.7442 97.84 54.4587 98.4764 54.4587 99.2865C54.4587 100.13 54.7778 100.799 55.4159 101.295C56.0541 101.774 56.9525 102.014 58.1112 102.014Z" fill="white"/>
<path d="M46.3806 103.031C45.1043 103.031 43.9624 102.75 42.9548 102.188C41.9472 101.626 41.1579 100.849 40.5869 99.8568C40.016 98.8484 39.7305 97.716 39.7305 96.4597C39.7305 95.1868 40.016 94.0544 40.5869 93.0626C41.1579 92.0542 41.9472 91.2773 42.9548 90.7317C43.9624 90.1697 45.1043 89.8887 46.3806 89.8887C47.4386 89.8887 48.3958 90.0953 49.2522 90.5086C50.1255 90.9053 50.8308 91.4922 51.3682 92.2691L50.4362 92.9386C49.9659 92.2939 49.3782 91.8145 48.6729 91.5004C47.9843 91.1698 47.2203 91.0045 46.3806 91.0045C45.3562 91.0045 44.4326 91.2359 43.6097 91.6988C42.8036 92.1451 42.1655 92.7816 41.6953 93.6081C41.2419 94.4347 41.0152 95.3852 41.0152 96.4597C41.0152 97.5342 41.2419 98.4847 41.6953 99.3112C42.1655 100.138 42.8036 100.782 43.6097 101.245C44.4326 101.692 45.3562 101.915 46.3806 101.915C47.2203 101.915 47.9843 101.758 48.6729 101.444C49.3782 101.113 49.9659 100.625 50.4362 99.9807L51.3682 100.65C50.8308 101.427 50.1255 102.022 49.2522 102.436C48.3958 102.832 47.4386 103.031 46.3806 103.031Z" fill="white"/>
<path d="M31.6109 103.056C30.3178 103.056 29.0835 102.841 27.908 102.411C26.7493 101.965 25.8424 101.394 25.1875 100.7L25.7669 99.7576C26.3882 100.402 27.2195 100.931 28.2607 101.345C29.3186 101.741 30.427 101.94 31.5857 101.94C33.265 101.94 34.5329 101.626 35.3894 100.997C36.2458 100.369 36.6741 99.551 36.6741 98.5426C36.6741 97.7657 36.4474 97.1458 35.9939 96.6829C35.5405 96.22 34.978 95.8646 34.3062 95.6167C33.6345 95.3687 32.7277 95.1125 31.5857 94.848C30.2926 94.5339 29.2515 94.2281 28.4622 93.9305C27.6897 93.633 27.0264 93.1784 26.4722 92.5667C25.9348 91.9385 25.6661 91.1037 25.6661 90.0623C25.6661 89.2192 25.8928 88.4505 26.3462 87.7562C26.7997 87.0454 27.4882 86.4834 28.4118 86.0701C29.3522 85.6568 30.5194 85.4502 31.9132 85.4502C32.8872 85.4502 33.8444 85.5907 34.7848 85.8717C35.7253 86.1528 36.5397 86.533 37.2282 87.0124L36.7496 88.029C36.0443 87.5496 35.2634 87.1859 34.407 86.938C33.5673 86.69 32.7361 86.566 31.9132 86.566C30.2842 86.566 29.0499 86.8884 28.2103 87.5331C27.3706 88.1778 26.9508 89.0126 26.9508 90.0375C26.9508 90.8145 27.1775 91.4344 27.6309 91.8972C28.0843 92.3601 28.6469 92.7155 29.3186 92.9635C29.9904 93.2114 30.9056 93.4759 32.0643 93.7569C33.3574 94.071 34.3902 94.3768 35.1627 94.6744C35.9352 94.972 36.5901 95.4266 37.1275 96.0382C37.6817 96.6333 37.9588 97.4433 37.9588 98.4682C37.9588 99.3113 37.7236 100.08 37.2534 100.774C36.8 101.469 36.0947 102.022 35.1375 102.436C34.1803 102.849 33.0047 103.056 31.6109 103.056Z" fill="white"/>
<path d="M88.2204 13.9873C84.3384 10.6436 79.1787 9.11591 74.0775 9.79809C65.2602 10.9703 58.6179 18.4647 58.6179 27.2273V66.6785L58.5667 66.6637V74.4719L61.2514 75.249C61.2527 75.2494 61.3493 75.278 61.3977 75.2875L71.4343 78.1892C76.8866 79.7649 82.612 78.7368 87.1669 75.3836C91.7122 72.0303 94.3262 66.8996 94.3262 61.298V27.2369C94.3262 22.1542 92.1023 17.3309 88.2204 13.9873ZM75.0821 17.2252C78.018 16.8313 80.9831 17.7056 83.207 19.6273C85.4406 21.5489 86.7183 24.3257 86.7183 27.2369V61.3076C86.7183 64.5263 85.2162 67.476 82.612 69.3977C79.998 71.3289 76.7013 71.9054 73.5703 71.0022L66.1965 68.8692V27.2369C66.1965 22.2023 70.02 17.8978 75.0821 17.2252Z" fill="white"/>
<path d="M31.9515 13.9882C35.8335 10.6446 40.9932 9.11689 46.0944 9.79907C54.9117 10.9713 61.554 18.4656 61.554 27.2283V66.6795L61.6075 66.664V74.4722L58.9204 75.25C58.9199 75.2502 58.8228 75.2789 58.7742 75.2885L48.7376 78.1901C43.2853 79.7659 37.5599 78.7378 33.0049 75.3845C28.4597 72.0313 25.8457 66.9005 25.8457 61.299V27.2379C25.8457 22.1552 28.0695 17.3319 31.9515 13.9882ZM45.0897 17.2262C42.1539 16.8323 39.1887 17.7066 36.9649 19.6282C34.7313 21.5499 33.4536 24.3266 33.4536 27.2379V61.3086C33.4536 64.5273 34.9557 67.477 37.5599 69.3987C40.1739 71.3299 43.4706 71.9064 46.6015 71.0032L53.9753 68.8702V27.2379C53.9753 22.2032 50.1519 17.8988 45.0897 17.2262Z" fill="white"/>
<path d="M120.879 14.705C116.997 11.3614 111.837 9.83369 106.736 10.5159C97.9184 11.6881 91.2762 19.1824 91.2762 27.9451V67.3963L91.2238 67.3812V75.1893L93.9096 75.9668C93.9096 75.9668 94.0072 75.9957 94.056 76.0053L104.092 78.9069C109.545 80.4827 115.27 79.4546 119.825 76.1013C124.37 72.7481 126.984 67.6173 126.984 62.0158V27.9547C126.984 22.872 124.761 18.0487 120.879 14.705ZM107.74 17.943C110.676 17.5491 113.641 18.4234 115.865 20.345C118.099 22.2667 119.377 25.0434 119.377 27.9547V62.0254C119.377 65.2441 117.874 68.1938 115.27 70.1155C112.656 72.0467 109.359 72.6232 106.229 71.72L98.8548 69.587L98.8548 27.9547C98.8548 22.92 102.678 18.6156 107.74 17.943Z" fill="white"/>
<path d="M91.2227 54.7485C91.2227 52.682 92.9244 51.0068 95.0237 51.0068C97.123 51.0068 98.8247 52.682 98.8247 54.7485V111.382C98.8247 113.449 97.123 115.124 95.0237 115.124C92.9244 115.124 91.2227 113.449 91.2227 111.382V54.7485Z" fill="white"/>
<path d="M8.15039 51.0059L0.000954628 51.0059L0.000958826 3.74134C0.000959009 1.67488 1.70274 -0.000309545 3.802 -0.000309365L4.34936 -0.000309318C6.44861 -0.000309137 8.1504 1.67488 8.15039 3.74134L8.15039 51.0059Z" fill="white"/>
<path d="M0 29.2754H8.19344V65.88H31.2611V72.7046H0V29.2754Z" fill="white"/>
<path d="M10.4608 65.8536C8.97682 65.7099 8.3423 64.5365 8.21053 63.9678L7.08546 64.1474C6.86245 64.5365 6.37995 65.4225 6.23399 65.8536C6.08803 66.2846 6.43671 67.2904 6.6293 67.7394H10.8561C11.3426 67.1706 11.9447 65.9972 10.4608 65.8536Z" fill="white"/>
</svg>
