<svg width="79" height="61" viewBox="0 0 79 61" fill="none" xmlns="http://www.w3.org/2000/svg">
<path d="M53.0269 51.1443H45.9905C46.0114 51.6773 46.1734 52.1535 46.4764 52.5729C46.7793 52.9836 47.1868 53.3025 47.6987 53.5297C48.2211 53.7569 48.8061 53.8705 49.4539 53.8705C49.9867 53.8705 50.4777 53.7919 50.927 53.6346C51.3867 53.4686 51.768 53.2283 52.071 52.9137L52.5254 53.3462C52.1702 53.7045 51.721 53.9797 51.1777 54.172C50.6449 54.3642 50.0651 54.4603 49.4382 54.4603C48.6233 54.4603 47.8972 54.3118 47.2599 54.0147C46.6226 53.7176 46.1211 53.3069 45.7555 52.7826C45.4003 52.2584 45.2227 51.6598 45.2227 50.987C45.2227 50.3229 45.3898 49.7287 45.7241 49.2045C46.0689 48.6714 46.539 48.2564 47.1345 47.9593C47.7301 47.6622 48.3987 47.5137 49.1405 47.5137C49.8822 47.5137 50.5457 47.6622 51.1307 47.9593C51.7262 48.2477 52.1911 48.654 52.5254 49.1782C52.8702 49.7025 53.0426 50.2967 53.0426 50.9608L53.0269 51.1443ZM49.1405 48.0904C48.5659 48.0904 48.0487 48.1996 47.589 48.418C47.1293 48.6278 46.7584 48.9292 46.4764 49.3224C46.2047 49.7069 46.048 50.1438 46.0062 50.6331H52.2747C52.2434 50.1438 52.0867 49.7069 51.8046 49.3224C51.5225 48.9379 51.1516 48.6365 50.6919 48.418C50.2322 48.1996 49.7151 48.0904 49.1405 48.0904Z" fill="white"/>
<path d="M42.5 44.6816H43.2836V54.4069H42.5V44.6816Z" fill="white"/>
<path d="M36.5904 47.5137C37.6038 47.5137 38.3821 47.7321 38.9254 48.169C39.4687 48.5972 39.7403 49.2307 39.7403 50.0695V54.4079H38.9881V53.1889C38.7269 53.5909 38.3456 53.9054 37.8441 54.1326C37.3426 54.3511 36.7419 54.4603 36.0419 54.4603C35.133 54.4603 34.4121 54.2812 33.8793 53.9229C33.3569 53.5647 33.0957 53.0928 33.0957 52.5074C33.0957 51.9394 33.336 51.4807 33.8166 51.1312C34.3076 50.7729 35.086 50.5938 36.1516 50.5938H38.9567V50.0433C38.9567 49.4054 38.7478 48.9205 38.3299 48.5884C37.9224 48.2564 37.3217 48.0904 36.5277 48.0904C35.9844 48.0904 35.4621 48.169 34.9606 48.3263C34.4695 48.4836 34.0516 48.6933 33.7069 48.9554L33.3151 48.4836C33.7226 48.1778 34.2136 47.9418 34.7882 47.7758C35.3628 47.6011 35.9635 47.5137 36.5904 47.5137ZM36.1516 53.9229C36.8307 53.9229 37.4053 53.7919 37.8754 53.5297C38.356 53.2676 38.7165 52.8875 38.9567 52.3894V51.1049H36.1673C35.3628 51.1049 34.7777 51.2273 34.4121 51.4719C34.0569 51.7166 33.8793 52.053 33.8793 52.4812C33.8793 52.9268 34.0778 53.2807 34.4748 53.5428C34.8718 53.7962 35.4307 53.9229 36.1516 53.9229Z" fill="white"/>
<path d="M28.854 54.4603C28.06 54.4603 27.3496 54.3118 26.7227 54.0147C26.0959 53.7176 25.6048 53.3069 25.2496 52.7826C24.8944 52.2496 24.7168 51.6511 24.7168 50.987C24.7168 50.3142 24.8944 49.7156 25.2496 49.1913C25.6048 48.6583 26.0959 48.2477 26.7227 47.9593C27.3496 47.6622 28.06 47.5137 28.854 47.5137C29.5122 47.5137 30.1077 47.6229 30.6405 47.8413C31.1838 48.0511 31.6226 48.3612 31.9569 48.7719L31.3771 49.1258C31.0845 48.785 30.7189 48.5316 30.2801 48.3656C29.8517 48.1909 29.3764 48.1035 28.854 48.1035C28.2167 48.1035 27.6421 48.2258 27.1302 48.4705C26.6287 48.7064 26.2317 49.0428 25.9392 49.4797C25.6571 49.9166 25.516 50.419 25.516 50.987C25.516 51.555 25.6571 52.0574 25.9392 52.4943C26.2317 52.9312 26.6287 53.2719 27.1302 53.5166C27.6421 53.7525 28.2167 53.8705 28.854 53.8705C29.3764 53.8705 29.8517 53.7875 30.2801 53.6215C30.7189 53.4467 31.0845 53.1889 31.3771 52.8482L31.9569 53.202C31.6226 53.6127 31.1838 53.9273 30.6405 54.1457C30.1077 54.3554 29.5122 54.4603 28.854 54.4603Z" fill="white"/>
<path d="M19.6661 54.4719C18.8616 54.4719 18.0937 54.3583 17.3624 54.1311C16.6415 53.8952 16.0774 53.5937 15.6699 53.2267L16.0304 52.7287C16.4169 53.0694 16.9341 53.3491 17.5818 53.5675C18.24 53.7772 18.9295 53.8821 19.6504 53.8821C20.6952 53.8821 21.4839 53.7161 22.0168 53.384C22.5496 53.052 22.816 52.6194 22.816 52.0864C22.816 51.6758 22.675 51.3481 22.3929 51.1034C22.1108 50.8588 21.7608 50.6709 21.3429 50.5398C20.925 50.4088 20.3608 50.2733 19.6504 50.1335C18.846 49.9675 18.1982 49.8058 17.7072 49.6486C17.2266 49.4913 16.8139 49.251 16.4692 48.9277C16.1348 48.5956 15.9677 48.1544 15.9677 47.6039C15.9677 47.1583 16.1087 46.7519 16.3908 46.385C16.6729 46.0092 17.1012 45.7121 17.6758 45.4937C18.2609 45.2752 18.987 45.166 19.8541 45.166C20.4601 45.166 21.0556 45.2403 21.6407 45.3888C22.2257 45.5374 22.7324 45.7383 23.1608 45.9917L22.863 46.5291C22.4242 46.2757 21.9384 46.0835 21.4056 45.9524C20.8832 45.8214 20.3661 45.7558 19.8541 45.7558C18.8407 45.7558 18.0728 45.9262 17.5505 46.267C17.0281 46.6078 16.7669 47.049 16.7669 47.5908C16.7669 48.0015 16.9079 48.3291 17.19 48.5738C17.4721 48.8185 17.8221 49.0063 18.24 49.1374C18.6579 49.2685 19.2273 49.4083 19.9482 49.5568C20.7526 49.7228 21.3951 49.8845 21.8757 50.0418C22.3563 50.199 22.7638 50.4393 23.0981 50.7626C23.4429 51.0772 23.6152 51.5054 23.6152 52.0471C23.6152 52.4927 23.469 52.8991 23.1764 53.266C22.8944 53.633 22.4556 53.9258 21.8601 54.1442C21.2646 54.3627 20.5332 54.4719 19.6661 54.4719Z" fill="white"/>
<path d="M54.8831 7.39233C52.468 5.62494 49.258 4.81743 46.0844 5.17802C40.599 5.79762 36.4666 9.75901 36.4666 14.3908V35.244L36.4348 35.2362V39.3634L38.105 39.7742C38.1058 39.7744 38.1659 39.7895 38.196 39.7945L44.44 41.3283C47.832 42.1612 51.394 41.6178 54.2277 39.8453C57.0554 38.0728 58.6816 35.3608 58.6816 32.3999V14.3959C58.6816 11.7092 57.2981 9.15973 54.8831 7.39233ZM46.7094 9.10387C48.5359 8.89564 50.3806 9.35779 51.7641 10.3735C53.1537 11.3893 53.9486 12.857 53.9486 14.3959V32.405C53.9486 34.1063 53.0141 35.6655 51.394 36.6813C49.7677 37.7021 47.7167 38.0068 45.7689 37.5294L41.1815 36.4019V14.3959C41.1815 11.7346 43.5602 9.45938 46.7094 9.10387Z" fill="#1718FE"/>
<path d="M19.8767 7.39429C22.2918 5.62689 25.5018 4.81938 28.6753 5.17997C34.1608 5.79957 38.2931 9.76096 38.2931 14.3927V35.2459L38.3264 35.2378V39.365L36.6547 39.7762C36.6544 39.7762 36.594 39.7914 36.5637 39.7965L30.3197 41.3302C26.9277 42.1632 23.3658 41.6197 20.5321 39.8473C17.7044 38.0748 16.0781 35.3628 16.0781 32.4019V14.3978C16.0781 11.7112 17.4616 9.16168 19.8767 7.39429ZM28.0503 9.10582C26.2238 8.89759 24.3792 9.35974 22.9957 10.3755C21.6061 11.3912 20.8112 12.859 20.8112 14.3978V32.407C20.8112 34.1083 21.7457 35.6675 23.3658 36.6832C24.992 37.7041 27.043 38.0088 28.9908 37.5314L33.5783 36.4039V14.3978C33.5783 11.7366 31.1996 9.46133 28.0503 9.10582Z" fill="#1718FE"/>
<path d="M75.2014 7.77319C72.7864 6.0058 69.5764 5.19829 66.4028 5.55887C60.9174 6.17848 56.785 10.1399 56.785 14.7717V35.6248L56.7524 35.6168V39.7441L58.4234 40.1551C58.4234 40.1551 58.4841 40.1703 58.5144 40.1754L64.7584 41.7092C68.1504 42.5421 71.7123 41.9986 74.5461 40.2262C77.3738 38.4537 79 35.7417 79 32.7808V14.7767C79 12.0901 77.6165 9.54058 75.2014 7.77319ZM67.0278 9.48472C68.8543 9.2765 70.699 9.73865 72.0825 10.7544C73.472 11.7701 74.267 13.2379 74.267 14.7767V32.7859C74.267 34.4872 73.3325 36.0464 71.7123 37.0621C70.0861 38.083 68.0351 38.3877 66.0873 37.9103L61.4999 36.7828L61.4999 14.7767C61.4999 12.1155 63.8785 9.84023 67.0278 9.48472Z" fill="#1718FE"/>
<path d="M56.752 28.9387C56.752 27.8464 57.8107 26.9609 59.1167 26.9609C60.4227 26.9609 61.4814 27.8464 61.4814 28.9387V58.8742C61.4814 59.9665 60.4227 60.852 59.1167 60.852C57.8107 60.852 56.752 59.9665 56.752 58.8742V28.9387Z" fill="#1718FE"/>
<path d="M5.07031 26.9609L0.000344276 26.9609L0.000346888 1.97777C0.000347002 0.885482 1.05907 5.42875e-06 2.36507 5.52425e-06L2.70559 5.54914e-06C4.01159 5.64464e-06 5.07032 0.885483 5.07032 1.97777L5.07031 26.9609Z" fill="#1718FE"/>
<path d="M0 15.4746H5.09734V34.8231H19.4483V38.4305H0V15.4746Z" fill="#1718FE"/>
<path d="M6.50667 34.8093C5.58349 34.7333 5.18874 34.1131 5.10676 33.8125L4.40682 33.9074C4.26808 34.1131 3.96791 34.5815 3.8771 34.8093C3.7863 35.0371 4.00322 35.5688 4.12303 35.8061H6.75261C7.05529 35.5055 7.42986 34.8852 6.50667 34.8093Z" fill="#1718FE"/>
</svg>
